<svg width="290" height="49" viewBox="0 0 290 49" fill="none" xmlns="http://www.w3.org/2000/svg">
<path d="M17.4199 27.1982L22.7537 18.6919L21.7427 27.3376V28H1L3.68436 26.0129V4.11972L1 2.20232H11.2145L8.04208 4.11972V27.1982H17.4199ZM38.4753 4.11972L35.7909 2.20232H45.5522L42.833 4.11972V26.0826L45.5522 28H35.7909L38.4753 26.0826V4.11972ZM74.8843 2.93442H65.4019V14.2296L71.2587 14.1947L74.0477 9.69761V19.424L71.2587 14.892L65.4019 14.9268V26.0826L68.5744 28H58.3599L61.0442 26.0129V4.29403L58.3599 2.20232H79.2072V2.8647L80.1833 9.94164L74.8843 2.93442ZM110.096 27.2679L115.22 19.5286L114.279 27.3376V28H93.0827L95.7671 25.9083V4.29403L93.0827 2.20232H113.059V2.8647L114.035 9.73247L108.945 2.93442H100.125V14.2296L105.564 14.1947L108.353 9.69761V19.424L105.564 14.892L100.125 14.9268V27.2679H110.096ZM129.385 18.5873C131.791 24.479 135.312 27.7211 139.46 27.7211C142.423 27.7211 144.48 25.8386 144.48 23.0148C144.48 15.6938 129.908 18.0993 129.908 9.07009C129.908 4.81696 133.673 1.64453 138.833 1.64453C141.238 1.64453 143.992 2.27205 145.979 3.3179V3.91055L147.025 10.5691C144.55 5.2353 141.552 2.37663 137.996 2.37663C135.102 2.37663 133.011 4.32889 133.011 7.01325C133.011 13.7764 147.583 11.5452 147.583 20.8533C147.583 25.2111 144.167 28.4183 138.972 28.4183C136.148 28.4183 132.627 27.8606 130.466 27.0587V26.4661L129.385 18.5873ZM172.439 2.20232C178.365 2.20232 182.793 5.27016 182.793 9.31413C182.793 13.5672 178.365 16.7396 172.439 16.7396H167.733V26.0826L170.905 28H160.69L163.375 26.0826V4.29403L160.69 2.20232H172.439ZM171.986 16.0424C175.681 16.0424 178.261 13.2535 178.261 9.31413C178.261 5.54905 175.681 2.93442 171.986 2.93442H167.733V16.0424H171.986ZM216.826 26.0477L219.789 28H208.285L211.945 26.1523L208.773 18.8314H197.791L194.758 26.0477L198.663 28H190.435L193.817 26.0477L202.742 5.20044L200.999 2.34177L206.298 1.81884L216.826 26.0477ZM198.105 18.0993H208.459L203.404 6.52518H202.986L198.105 18.0993ZM230.182 14.892C230.182 7.6059 236.387 1.64453 243.987 1.64453C247.055 1.64453 250.506 2.34177 252.563 3.35276V3.94541L253.504 10.6737C251.029 5.2353 247.996 2.37663 243.987 2.41149C238.514 2.41149 234.923 7.50131 234.923 14.892C234.923 22.5267 238.514 27.6514 244.092 27.6514C248.101 27.6862 251.203 24.723 253.888 18.657L252.737 26.1175V26.7101C250.68 27.756 247.194 28.4532 244.092 28.4183C236.492 28.4183 230.182 22.3524 230.182 14.892ZM283.914 27.2679L289.039 19.5286L288.098 27.3376V28H266.902L269.586 25.9083V4.29403L266.902 2.20232H286.878V2.8647L287.854 9.73247L282.764 2.93442H273.944V14.2296L279.382 14.1947L282.171 9.69761V19.424L279.382 14.892L273.944 14.9268V27.2679H283.914Z" fill="black"/>
<path d="M1 43.205C1 40.7827 3.0631 38.8008 5.5897 38.8008C6.6097 38.8008 7.7571 39.0326 8.4409 39.3687V39.5657L8.7538 41.8026C7.9309 39.9945 6.9226 39.0441 5.5897 39.0557C3.7701 39.0557 2.5763 40.7479 2.5763 43.205C2.5763 45.7432 3.7701 47.447 5.6245 47.447C6.9574 47.4586 7.9889 46.4734 8.8813 44.4567L8.4988 46.937V47.1341C7.815 47.4818 6.656 47.7136 5.6245 47.702C3.0978 47.702 1 45.6853 1 43.205ZM22.2599 47.702C19.9071 47.702 17.8904 45.6853 17.8904 43.205C17.8904 40.7827 19.8839 38.8008 22.2599 38.8008C24.6358 38.8008 26.6409 40.7827 26.6409 43.205C26.6409 45.6853 24.6243 47.702 22.2599 47.702ZM22.2599 47.447C23.9868 47.447 25.0647 45.8823 25.0647 43.205C25.0647 40.6436 24.01 39.0557 22.2599 39.0557C20.5329 39.0557 19.4551 40.6088 19.4551 43.205C19.4551 45.8476 20.5213 47.447 22.2599 47.447ZM45.5643 39.6237V46.9254L46.4683 47.5629H43.2231L44.1155 46.9254V40.2148H43.9764L40.6269 47.9222L36.9528 40.2148H36.8369V46.9023L38.0655 47.5629H35.3186L36.5472 46.9023V39.7048L35.5968 38.9862H37.9843L41.1832 45.6505H41.3339L44.1851 38.9862H46.4683L45.5643 39.6237ZM65.3406 39.6237V46.9254L66.2446 47.5629H62.9996L63.8916 46.9254V40.2148H63.7526L60.4036 47.9222L56.7296 40.2148H56.6136V46.9023L57.8416 47.5629H55.0956L56.3236 46.9023V39.7048L55.3736 38.9862H57.7606L60.9596 45.6505H61.1106L63.9616 38.9862H66.2446L65.3406 39.6237ZM75.7406 44.9899V39.6816L74.8366 38.9862H78.0816L77.1896 39.6816L77.2006 44.7117C77.2006 45.9635 78.2096 46.8675 79.5996 46.8675C80.9326 46.8675 81.8836 45.9866 81.8836 44.7581V39.6816L80.6546 38.9862H83.4136L82.1846 39.6816L82.1966 44.8624C82.1966 46.5082 80.8636 47.702 79.0436 47.702C77.1196 47.702 75.7406 46.5661 75.7406 44.9899ZM100.9 38.9862L99.6706 39.6816V47.9222L93.2496 40.4234H93.1106V46.8675L94.3396 47.5629H91.5926L92.8206 46.8675V39.925L91.9166 39.021L93.8876 38.8587L99.2186 45.0942H99.3696V39.6816L98.1406 38.9862H100.9ZM110.418 39.6237L109.526 38.9862H112.771L111.867 39.6237V46.9254L112.771 47.5629H109.526L110.418 46.9254V39.6237ZM127.924 39.2296H126.44V46.9254L127.495 47.5629H123.937L124.992 46.9254V39.2296H123.508L121.619 41.6983L122.013 39.2064V38.9862H129.419V39.2064L129.813 41.6983L127.924 39.2296ZM139.559 39.6237L138.666 38.9862H141.911L141.007 39.6237V46.9254L141.911 47.5629H138.666L139.559 46.9254V39.6237ZM156.346 47.3195L158.049 44.7465L157.736 47.3427V47.5629H150.69L151.582 46.8675V39.6816L150.69 38.9862H157.331V39.2064L157.655 41.4897L155.963 39.2296H153.031V42.9848L154.839 42.9732L155.766 41.4781V44.7117L154.839 43.205L153.031 43.2166V47.3195H156.346ZM167.279 44.4336C168.078 46.3923 169.249 47.4702 170.628 47.4702C171.613 47.4702 172.297 46.8443 172.297 45.9055C172.297 43.4716 167.453 44.2713 167.453 41.2695C167.453 39.8555 168.704 38.8008 170.42 38.8008C171.219 38.8008 172.135 39.0094 172.796 39.3571V39.5541L173.143 41.7678C172.32 39.9945 171.324 39.0441 170.141 39.0441C169.179 39.0441 168.484 39.6932 168.484 40.5856C168.484 42.8341 173.329 42.0924 173.329 45.1869C173.329 46.6357 172.193 47.702 170.466 47.702C169.527 47.702 168.357 47.5165 167.638 47.25V47.0529L167.279 44.4336ZM185.633 38.8819C187.349 38.8819 188.728 40.2727 188.728 41.9765C188.728 43.6918 187.349 45.0826 185.633 45.0826C183.918 45.0826 182.527 43.6918 182.527 41.9765C182.527 40.2727 183.918 38.8819 185.633 38.8819ZM185.633 44.677C187.071 44.677 188.253 43.46 188.253 41.9765C188.253 40.5045 187.071 39.2875 185.633 39.2875C184.185 39.2875 182.991 40.5045 182.991 41.9765C182.991 43.46 184.185 44.677 185.633 44.677ZM185.958 41.8721L187.488 43.5411H186.665L185.239 41.8837H185.135V43.1818L185.506 43.5411H184.173L184.509 43.1818V40.5972L184.196 40.2379H185.599C186.387 40.2379 186.92 40.574 186.92 41.0608C186.92 41.4781 186.514 41.8142 185.958 41.8721ZM185.135 40.3654V41.791H185.552C185.97 41.791 186.259 41.5013 186.259 41.0608C186.259 40.6436 185.97 40.3654 185.552 40.3654H185.135Z" fill="black"/>
</svg>
