<svg width="290" height="49" viewBox="0 0 290 49" fill="none" xmlns="http://www.w3.org/2000/svg">
<path d="M17.0823 27.1982L22.4161 18.6919L21.4051 27.3376V28H0.662374L3.34673 26.0129V4.11968L0.662374 2.20228H10.8769L7.70445 4.11968V27.1982H17.0823ZM38.1377 4.11968L35.4533 2.20228H45.2146L42.4954 4.11968V26.0826L45.2146 28H35.4533L38.1377 26.0826V4.11968ZM74.5467 2.93438H65.0643V14.2296L70.9211 14.1947L73.7101 9.69757V19.424L70.9211 14.892L65.0643 14.9268V26.0826L68.2368 28H58.0223L60.7066 26.0129V4.29399L58.0223 2.20228H78.8696V2.86466L79.8457 9.9416L74.5467 2.93438ZM109.758 27.2679L114.882 19.5286L113.941 27.3376V28H92.7451L95.4295 25.9083V4.29399L92.7451 2.20228H112.721V2.86466L113.697 9.73243L108.607 2.93438H99.7872V14.2296L105.226 14.1947L108.015 9.69757V19.424L105.226 14.892L99.7872 14.9268V27.2679H109.758ZM129.047 18.5873C131.453 24.479 134.974 27.7211 139.122 27.7211C142.085 27.7211 144.142 25.8386 144.142 23.0148C144.142 15.6938 129.57 18.0993 129.57 9.07005C129.57 4.81692 133.335 1.64449 138.495 1.64449C140.9 1.64449 143.654 2.27201 145.641 3.31786V3.91051L146.687 10.5691C144.212 5.23526 141.214 2.37659 137.658 2.37659C134.764 2.37659 132.673 4.32885 132.673 7.01321C132.673 13.7764 147.245 11.5452 147.245 20.8533C147.245 25.2111 143.829 28.4183 138.634 28.4183C135.81 28.4183 132.289 27.8606 130.128 27.0587V26.4661L129.047 18.5873ZM172.101 2.20228C178.027 2.20228 182.455 5.27012 182.455 9.31409C182.455 13.5672 178.027 16.7396 172.101 16.7396H167.395V26.0826L170.567 28H160.352L163.037 26.0826V4.29399L160.352 2.20228H172.101ZM171.648 16.0424C175.343 16.0424 177.923 13.2535 177.923 9.31409C177.923 5.54901 175.343 2.93438 171.648 2.93438H167.395V16.0424H171.648ZM216.488 26.0477L219.451 28H207.947L211.607 26.1523L208.435 18.8314H197.453L194.42 26.0477L198.325 28H190.097L193.479 26.0477L202.404 5.2004L200.661 2.34173L205.96 1.8188L216.488 26.0477ZM197.767 18.0993H208.121L203.066 6.52514H202.648L197.767 18.0993ZM229.844 14.892C229.844 7.60586 236.049 1.64449 243.649 1.64449C246.717 1.64449 250.168 2.34173 252.225 3.35272V3.94537L253.166 10.6737C250.691 5.23526 247.658 2.37659 243.649 2.41145C238.176 2.41145 234.585 7.50127 234.585 14.892C234.585 22.5267 238.176 27.6514 243.754 27.6514C247.763 27.6862 250.865 24.723 253.55 18.657L252.399 26.1175V26.7101C250.342 27.756 246.856 28.4532 243.754 28.4183C236.154 28.4183 229.844 22.3524 229.844 14.892ZM283.576 27.2679L288.701 19.5286L287.76 27.3376V28H266.564L269.248 25.9083V4.29399L266.564 2.20228H286.54V2.86466L287.516 9.73243L282.426 2.93438H273.606V14.2296L279.044 14.1947L281.833 9.69757V19.424L279.044 14.892L273.606 14.9268V27.2679H283.576Z" fill="black"/>
<path d="M51.3844 43.2046C51.3844 40.7823 53.4475 38.8004 55.9741 38.8004C56.9941 38.8004 58.1415 39.0322 58.8253 39.3683V39.5653L59.1382 41.8022C58.3153 39.9941 57.307 39.0437 55.9741 39.0553C54.1545 39.0553 52.9607 40.7475 52.9607 43.2046C52.9607 45.7428 54.1545 47.4466 56.0089 47.4466C57.3418 47.4582 58.3733 46.473 59.2657 44.4563L58.8832 46.9366V47.1337C58.1994 47.4814 57.0404 47.7132 56.0089 47.7016C53.4822 47.7016 51.3844 45.6849 51.3844 43.2046ZM72.6443 47.7016C70.2915 47.7016 68.2748 45.6849 68.2748 43.2046C68.2748 40.7823 70.2683 38.8004 72.6443 38.8004C75.0202 38.8004 77.0253 40.7823 77.0253 43.2046C77.0253 45.6849 75.0087 47.7016 72.6443 47.7016ZM72.6443 47.4466C74.3712 47.4466 75.4491 45.8819 75.4491 43.2046C75.4491 40.6432 74.3944 39.0553 72.6443 39.0553C70.9173 39.0553 69.8395 40.6084 69.8395 43.2046C69.8395 45.8472 70.9057 47.4466 72.6443 47.4466ZM95.9487 39.6233V46.925L96.8527 47.5625H93.6075L94.4999 46.925V40.2144H94.3608L91.0113 47.9218L87.3372 40.2144H87.2213V46.9019L88.4499 47.5625H85.703L86.9316 46.9019V39.7044L85.9812 38.9858H88.3687L91.5676 45.6501H91.7183L94.5695 38.9858H96.8527L95.9487 39.6233ZM115.725 39.6233V46.925L116.629 47.5625H113.384L114.276 46.925V40.2144H114.137L110.788 47.9218L107.114 40.2144H106.998V46.9019L108.226 47.5625H105.48L106.708 46.9019V39.7044L105.758 38.9858H108.145L111.344 45.6501H111.495L114.346 38.9858H116.629L115.725 39.6233ZM126.125 44.9895V39.6812L125.221 38.9858H128.466L127.574 39.6812L127.585 44.7113C127.585 45.9631 128.594 46.8671 129.984 46.8671C131.317 46.8671 132.268 45.9862 132.268 44.7577V39.6812L131.039 38.9858H133.798L132.569 39.6812L132.581 44.862C132.581 46.5078 131.248 47.7016 129.428 47.7016C127.504 47.7016 126.125 46.5657 126.125 44.9895ZM151.284 38.9858L150.055 39.6812V47.9218L143.634 40.423H143.495V46.8671L144.724 47.5625H141.977L143.205 46.8671V39.9246L142.301 39.0206L144.272 38.8583L149.603 45.0938H149.754V39.6812L148.525 38.9858H151.284ZM160.802 39.6233L159.91 38.9858H163.155L162.251 39.6233V46.925L163.155 47.5625H159.91L160.802 46.925V39.6233ZM178.308 39.2292H176.824V46.925L177.879 47.5625H174.321L175.376 46.925V39.2292H173.892L172.003 41.6979L172.397 39.206V38.9858H179.803V39.206L180.197 41.6979L178.308 39.2292ZM189.943 39.6233L189.05 38.9858H192.295L191.391 39.6233V46.925L192.295 47.5625H189.05L189.943 46.925V39.6233ZM206.73 47.3191L208.433 44.7461L208.12 47.3423V47.5625H201.074L201.966 46.8671V39.6812L201.074 38.9858H207.715V39.206L208.039 41.4893L206.347 39.2292H203.415V42.9844L205.223 42.9728L206.15 41.4777V44.7113L205.223 43.2046L203.415 43.2162V47.3191H206.73ZM217.663 44.4332C218.462 46.3919 219.633 47.4698 221.012 47.4698C221.997 47.4698 222.681 46.8439 222.681 45.9051C222.681 43.4712 217.837 44.2709 217.837 41.2691C217.837 39.8551 219.088 38.8004 220.804 38.8004C221.603 38.8004 222.519 39.009 223.18 39.3567V39.5537L223.527 41.7674C222.704 39.9941 221.708 39.0437 220.525 39.0437C219.563 39.0437 218.868 39.6928 218.868 40.5852C218.868 42.8337 223.713 42.092 223.713 45.1865C223.713 46.6353 222.577 47.7016 220.85 47.7016C219.911 47.7016 218.741 47.5161 218.022 47.2496V47.0525L217.663 44.4332ZM236.017 38.8815C237.733 38.8815 239.112 40.2723 239.112 41.9761C239.112 43.6914 237.733 45.0822 236.017 45.0822C234.302 45.0822 232.911 43.6914 232.911 41.9761C232.911 40.2723 234.302 38.8815 236.017 38.8815ZM236.017 44.6766C237.455 44.6766 238.637 43.4596 238.637 41.9761C238.637 40.5041 237.455 39.2871 236.017 39.2871C234.569 39.2871 233.375 40.5041 233.375 41.9761C233.375 43.4596 234.569 44.6766 236.017 44.6766ZM236.342 41.8717L237.872 43.5407H237.049L235.623 41.8833H235.519V43.1814L235.89 43.5407H234.557L234.893 43.1814V40.5968L234.58 40.2375H235.983C236.771 40.2375 237.304 40.5736 237.304 41.0604C237.304 41.4777 236.898 41.8138 236.342 41.8717ZM235.519 40.365V41.7906H235.936C236.354 41.7906 236.643 41.5009 236.643 41.0604C236.643 40.6432 236.354 40.365 235.936 40.365H235.519Z" fill="black"/>
</svg>
