<svg width="489" height="83" viewBox="0 0 489 83" fill="none" xmlns="http://www.w3.org/2000/svg">
<path d="M28.8042 45.648L37.7982 31.3046L36.0935 45.8831V47H1.1169L5.64328 43.6493V6.73284L1.1169 3.49971H18.3407L12.9913 6.73284V45.648H28.8042ZM64.3081 6.73284L59.7817 3.49971H76.2412L71.6561 6.73284V43.7669L76.2412 47H59.7817L64.3081 43.7669V6.73284ZM125.701 4.73418H109.712V23.7802L119.588 23.7215L124.29 16.1383V32.5391L119.588 24.8971L109.712 24.9559V43.7669L115.061 47H97.8375L102.364 43.6493V7.02676L97.8375 3.49971H132.99V4.61661L134.636 16.5498L125.701 4.73418ZM185.074 45.7655L193.715 32.7154L192.128 45.8831V47H156.387L160.914 43.4729V7.02676L156.387 3.49971H190.071V4.61661L191.717 16.1971L183.134 4.73418H168.262V23.7802L177.432 23.7215L182.135 16.1383V32.5391L177.432 24.8971L168.262 24.9559V45.7655H185.074ZM217.6 31.1283C221.656 41.0628 227.593 46.5297 234.589 46.5297C239.585 46.5297 243.054 43.3554 243.054 38.5939C243.054 26.2492 218.482 30.3053 218.482 15.0802C218.482 7.90852 224.831 2.55916 233.531 2.55916C237.587 2.55916 242.231 3.61728 245.581 5.3808V6.38013L247.345 17.6079C243.171 8.61393 238.116 3.79363 232.12 3.79363C227.241 3.79363 223.714 7.08554 223.714 11.6119C223.714 23.0161 248.286 19.2539 248.286 34.9492C248.286 42.2973 242.525 47.7054 233.766 47.7054C229.004 47.7054 223.067 46.7649 219.422 45.4128V44.4135L217.6 31.1283ZM290.198 3.49971C300.191 3.49971 307.657 8.67272 307.657 15.4917C307.657 22.6633 300.191 28.0127 290.198 28.0127H282.262V43.7669L287.611 47H270.387L274.914 43.7669V7.02676L270.387 3.49971H290.198ZM289.434 26.837C295.665 26.837 300.015 22.1343 300.015 15.4917C300.015 9.14299 295.665 4.73418 289.434 4.73418H282.262V26.837H289.434ZM365.043 43.7081L370.04 47H350.641L356.814 43.8844L351.464 31.5398H332.947L327.833 43.7081L334.417 47H320.544L326.246 43.7081L341.294 8.55515L338.355 3.73484L347.29 2.85308L365.043 43.7081ZM333.476 30.3053H350.935L342.411 10.7889H341.706L333.476 30.3053ZM387.564 24.8971C387.564 12.6113 398.028 2.55916 410.843 2.55916C416.016 2.55916 421.835 3.73484 425.304 5.43959V6.43892L426.891 17.7843C422.717 8.61393 417.603 3.79363 410.843 3.85241C401.614 3.85241 395.559 12.4349 395.559 24.8971C395.559 37.7709 401.614 46.4122 411.019 46.4122C417.779 46.4709 423.011 41.4743 427.537 31.2458L425.597 43.8257V44.825C422.129 46.5885 416.251 47.7642 411.019 47.7054C398.204 47.7054 387.564 37.477 387.564 24.8971ZM478.168 45.7655L486.81 32.7154L485.223 45.8831V47H449.482L454.008 43.4729V7.02676L449.482 3.49971H483.165V4.61661L484.811 16.1971L476.229 4.73418H461.356V23.7802L470.526 23.7215L475.229 16.1383V32.5391L470.526 24.8971L461.356 24.9559V45.7655H478.168Z" fill="black"/>
<path d="M86.6449 73.6751C86.6449 69.5906 90.1237 66.2487 94.3841 66.2487C96.1039 66.2487 98.0387 66.6395 99.1918 67.2063V67.5385L99.7194 71.3104C98.3319 68.2616 96.6316 66.6591 94.3841 66.6786C91.3158 66.6786 89.3028 69.5319 89.3028 73.6751C89.3028 77.9551 91.3158 80.828 94.4427 80.828C96.6902 80.8475 98.4296 79.1864 99.9344 75.7858L99.2895 79.9681V80.3003C98.1364 80.8866 96.1821 81.2775 94.4427 81.258C90.1823 81.258 86.6449 77.8574 86.6449 73.6751ZM122.493 81.258C118.526 81.258 115.126 77.8574 115.126 73.6751C115.126 69.5906 118.487 66.2487 122.493 66.2487C126.5 66.2487 129.881 69.5906 129.881 73.6751C129.881 77.8574 126.48 81.258 122.493 81.258ZM122.493 80.828C125.405 80.828 127.223 78.1896 127.223 73.6751C127.223 69.356 125.444 66.6786 122.493 66.6786C119.581 66.6786 117.764 69.2974 117.764 73.6751C117.764 78.131 119.562 80.828 122.493 80.828ZM161.789 67.6362V79.9486L163.314 81.0234H157.842L159.347 79.9486V68.6329H159.112L153.464 81.6293L147.269 68.6329H147.073V79.9095L149.145 81.0234H144.513L146.585 79.9095V67.773L144.982 66.5613H149.008L154.402 77.7988H154.656L159.464 66.5613H163.314L161.789 67.6362ZM195.137 67.6362V79.9486L196.661 81.0234H191.189L192.694 79.9486V68.6329H192.459L186.811 81.6293L180.616 68.6329H180.421V79.9095L182.492 81.0234H177.861L179.932 79.9095V67.773L178.33 66.5613H182.356L187.749 77.7988H188.004L192.811 66.5613H196.661L195.137 67.6362ZM212.673 76.6848V67.7339L211.148 66.5613H216.621L215.116 67.7339L215.135 76.2158C215.135 78.3265 216.836 79.8508 219.181 79.8508C221.428 79.8508 223.031 78.3655 223.031 76.2939V67.7339L220.959 66.5613H225.61L223.539 67.7339L223.558 76.4698C223.558 79.245 221.311 81.258 218.243 81.258C214.998 81.258 212.673 79.3427 212.673 76.6848ZM255.096 66.5613L253.024 67.7339V81.6293L242.197 68.9847H241.962V79.8508L244.034 81.0234H239.402L241.474 79.8508V68.1444L239.95 66.62L243.272 66.3464L252.262 76.8607H252.516V67.7339L250.444 66.5613H255.096ZM271.146 67.6362L269.642 66.5613H275.114L273.589 67.6362V79.9486L275.114 81.0234H269.642L271.146 79.9486V67.6362ZM300.664 66.9718H298.163V79.9486L299.941 81.0234H293.941L295.72 79.9486V66.9718H293.218L290.033 71.1345L290.697 66.9327V66.5613H303.185V66.9327L303.85 71.1345L300.664 66.9718ZM320.283 67.6362L318.778 66.5613H324.25L322.726 67.6362V79.9486L324.25 81.0234H318.778L320.283 79.9486V67.6362ZM348.589 80.613L351.462 76.2744L350.934 80.6521V81.0234H339.052L340.557 79.8508V67.7339L339.052 66.5613H350.25V66.9327L350.797 70.7827L347.944 66.9718H343V73.3038L346.048 73.2843L347.612 70.7632V76.2158L346.048 73.6751L343 73.6947V80.613H348.589ZM367.024 75.7467C368.373 79.0496 370.347 80.8671 372.673 80.8671C374.334 80.8671 375.487 79.8117 375.487 78.2287C375.487 74.1246 367.318 75.4731 367.318 70.4114C367.318 68.0271 369.428 66.2487 372.321 66.2487C373.669 66.2487 375.213 66.6004 376.327 67.1867V67.519L376.913 71.2518C375.526 68.2616 373.845 66.6591 371.852 66.6591C370.23 66.6591 369.057 67.7535 369.057 69.2583C369.057 73.0497 377.226 71.799 377.226 77.017C377.226 79.46 375.311 81.258 372.399 81.258C370.816 81.258 368.842 80.9453 367.63 80.4958V80.1635L367.024 75.7467ZM397.974 66.3855C400.867 66.3855 403.193 68.7307 403.193 71.6035C403.193 74.496 400.867 76.8412 397.974 76.8412C395.082 76.8412 392.737 74.496 392.737 71.6035C392.737 68.7307 395.082 66.3855 397.974 66.3855ZM397.974 76.1571C400.398 76.1571 402.391 74.1051 402.391 71.6035C402.391 69.1215 400.398 67.0695 397.974 67.0695C395.532 67.0695 393.519 69.1215 393.519 71.6035C393.519 74.1051 395.532 76.1571 397.974 76.1571ZM398.522 71.4276L401.101 74.2419H399.714L397.31 71.4472H397.134V73.636L397.759 74.2419H395.512L396.079 73.636V69.2779L395.551 68.672H397.916C399.245 68.672 400.144 69.2388 400.144 70.0596C400.144 70.7632 399.46 71.3299 398.522 71.4276ZM397.134 68.887V71.2908H397.838C398.541 71.2908 399.03 70.8023 399.03 70.0596C399.03 69.356 398.541 68.887 397.838 68.887H397.134Z" fill="black"/>
</svg>
