<svg width="100" height="100" viewBox="0 0 100 100" fill="none" xmlns="http://www.w3.org/2000/svg">
<g clip-path="url(#clip0_128_1216)">
<path d="M15.625 84.3755H84.375V46.8755C84.3753 46.465 84.2948 46.0585 84.1379 45.6791C83.9811 45.2997 83.751 44.955 83.4609 44.6646L52.2109 13.4146C51.9207 13.124 51.5761 12.8935 51.1967 12.7363C50.8173 12.579 50.4107 12.498 50 12.498C49.5893 12.498 49.1827 12.579 48.8033 12.7363C48.4239 12.8935 48.0793 13.124 47.7891 13.4146L16.5391 44.6646C16.249 44.955 16.0189 45.2997 15.8621 45.6791C15.7052 46.0585 15.6247 46.465 15.625 46.8755V84.3755Z" stroke="#9C9C9C" stroke-width="2" stroke-linecap="round" stroke-linejoin="round"/>
</g>
<defs>
<clipPath id="clip0_128_1216">
<rect width="100" height="100" fill="white"/>
</clipPath>
</defs>
</svg>
