<svg width="100" height="100" viewBox="0 0 100 100" fill="none" xmlns="http://www.w3.org/2000/svg">
<g clip-path="url(#clip0_95_2562)">
<path d="M32.918 67.083L11.3984 59.1533C10.8051 58.9343 10.2931 58.5387 9.93146 58.0197C9.56984 57.5008 9.37598 56.8835 9.37598 56.251C9.37598 55.6185 9.56984 55.0012 9.93146 54.4822C10.2931 53.9633 10.8051 53.5676 11.3984 53.3486L32.918 45.4189L40.8476 23.8994C41.0667 23.306 41.4623 22.794 41.9812 22.4324C42.5002 22.0708 43.1175 21.877 43.75 21.877C44.3825 21.877 44.9998 22.0708 45.5187 22.4324C46.0377 22.794 46.4333 23.306 46.6523 23.8994L54.582 45.4189L76.1016 53.3486C76.6949 53.5676 77.2069 53.9633 77.5685 54.4822C77.9301 55.0012 78.124 55.6185 78.124 56.251C78.124 56.8835 77.9301 57.5008 77.5685 58.0197C77.2069 58.5387 76.6949 58.9343 76.1016 59.1533L54.582 67.083L46.6523 88.6025C46.4333 89.1959 46.0377 89.7079 45.5187 90.0695C44.9998 90.4311 44.3825 90.625 43.75 90.625C43.1175 90.625 42.5002 90.4311 41.9812 90.0695C41.4623 89.7079 41.0667 89.1959 40.8476 88.6025L32.918 67.083Z" stroke="#9C9C9C" stroke-width="2" stroke-linecap="round" stroke-linejoin="round"/>
<path d="M68.75 6.25V25" stroke="#9C9C9C" stroke-width="2" stroke-linecap="round" stroke-linejoin="round"/>
<path d="M87.5 28.125V40.625" stroke="#9C9C9C" stroke-width="2" stroke-linecap="round" stroke-linejoin="round"/>
<path d="M59.375 15.625H78.125" stroke="#9C9C9C" stroke-width="2" stroke-linecap="round" stroke-linejoin="round"/>
<path d="M81.25 34.375H93.75" stroke="#9C9C9C" stroke-width="2" stroke-linecap="round" stroke-linejoin="round"/>
</g>
<defs>
<clipPath id="clip0_95_2562">
<rect width="100" height="100" fill="white"/>
</clipPath>
</defs>
</svg>
