<svg width="95" height="95" viewBox="0 0 95 95" fill="none" xmlns="http://www.w3.org/2000/svg">
<g clip-path="url(#clip0_293_1172)">
<path d="M47.1888 70.7838C47.1888 68.4372 48.121 66.1867 49.7803 64.5274C51.4396 62.868 53.6901 61.9358 56.0367 61.9358H73.0728C75.0769 61.9362 77.0217 61.2561 78.5889 60.0071C80.1561 58.758 81.2528 57.0139 81.6996 55.0602C82.3085 52.3778 82.6041 49.6338 82.5807 46.8832C82.4148 27.4103 66.3004 11.6019 46.8201 11.7973C37.4976 11.8944 28.59 15.666 22.0322 22.2928C15.4745 28.9196 11.7964 37.8662 11.7969 47.1892C11.7969 62.6031 21.6513 74.264 35.3915 79.1193C36.7255 79.591 38.1532 79.7358 39.5548 79.5417C40.9564 79.3476 42.291 78.8201 43.4466 78.0036C44.6022 77.1871 45.5451 76.1053 46.1962 74.8491C46.8474 73.5929 47.1877 72.1988 47.1888 70.7838Z" stroke="#9C9C9C" stroke-width="2" stroke-linecap="round" stroke-linejoin="round"/>
<path d="M47.1896 32.4426C49.6329 32.4426 51.6136 30.4619 51.6136 28.0186C51.6136 25.5753 49.6329 23.5946 47.1896 23.5946C44.7463 23.5946 42.7656 25.5753 42.7656 28.0186C42.7656 30.4619 44.7463 32.4426 47.1896 32.4426Z" fill="#9C9C9C"/>
<path d="M30.967 41.2906C33.4103 41.2906 35.3909 39.3099 35.3909 36.8666C35.3909 34.4233 33.4103 32.4426 30.967 32.4426C28.5237 32.4426 26.543 34.4233 26.543 36.8666C26.543 39.3099 28.5237 41.2906 30.967 41.2906Z" fill="#9C9C9C"/>
<path d="M30.967 61.9359C33.4103 61.9359 35.3909 59.9552 35.3909 57.5119C35.3909 55.0686 33.4103 53.0879 30.967 53.0879C28.5237 53.0879 26.543 55.0686 26.543 57.5119C26.543 59.9552 28.5237 61.9359 30.967 61.9359Z" fill="#9C9C9C"/>
<path d="M63.4103 41.2906C65.8536 41.2906 67.8343 39.3099 67.8343 36.8666C67.8343 34.4233 65.8536 32.4426 63.4103 32.4426C60.967 32.4426 58.9863 34.4233 58.9863 36.8666C58.9863 39.3099 60.967 41.2906 63.4103 41.2906Z" fill="#9C9C9C"/>
</g>
<defs>
<clipPath id="clip0_293_1172">
<rect width="94.3784" height="94.3784" fill="white"/>
</clipPath>
</defs>
</svg>
