<svg width="83" height="83" viewBox="0 0 83 83" fill="none" xmlns="http://www.w3.org/2000/svg">
<path d="M8.55762 44.9824H73.5625C74.3385 44.9824 75.0837 45.2897 75.6309 45.8369C76.1783 46.3843 76.4852 47.126 76.4854 47.9014V54.7471C76.4853 55.0672 76.3582 55.376 76.1318 55.6025C75.9052 55.8292 75.5956 55.957 75.2754 55.957H6.84473C6.5244 55.957 6.21485 55.8291 5.98828 55.6025C5.7619 55.3759 5.63478 55.0671 5.63477 54.7471V47.9014C5.63503 46.289 6.94399 44.9824 8.55762 44.9824Z" stroke="#9C9C9C"/>
<path d="M21.8711 58.666L17.2051 65.6738C16.9769 66.0161 16.5943 66.2216 16.1846 66.2217H11.9756C11.6553 66.2216 11.3467 66.0937 11.1201 65.8672C10.8935 65.6406 10.7657 65.3319 10.7656 65.0117V58.666H21.8711Z" stroke="#9C9C9C"/>
<path d="M71.3516 58.6641V65.0088C71.3516 65.3291 71.2246 65.6387 70.998 65.8652C70.7715 66.0917 70.4627 66.2186 70.1426 66.2188H66.0664C65.6085 66.221 65.1865 65.9655 64.9766 65.5557L61.5391 58.6641H71.3516Z" stroke="#9C9C9C"/>
<path d="M22.2385 34.7168H34.2151L34.3645 34.7207C35.9056 34.8012 37.1322 36.0765 37.135 37.6367V41.0586C37.135 41.4762 37.0426 41.889 36.8684 42.2686H19.5852C19.411 41.889 19.3186 41.4762 19.3186 41.0586V37.6367L19.3225 37.4873C19.4004 35.9958 20.5976 34.7986 22.0891 34.7207L22.2385 34.7168Z" stroke="#9C9C9C"/>
<path d="M47.9004 34.7168H59.877L60.0264 34.7207C61.5674 34.8012 62.794 36.0765 62.7969 37.6367V41.0586C62.7969 41.4762 62.7045 41.889 62.5303 42.2686H45.2471C45.0729 41.889 44.9805 41.4762 44.9805 41.0586V37.6367L44.9844 37.4873C45.0623 35.9958 46.2595 34.7986 47.751 34.7207L47.9004 34.7168Z" stroke="#9C9C9C"/>
<path d="M65.5088 37.6338C65.4981 34.5298 62.9819 32.0135 59.8779 32.0029H47.8975C44.7935 32.0135 42.2772 34.5298 42.2666 37.6338V41.0557C42.2644 41.4645 42.3108 41.8714 42.4023 42.2676H39.7109C39.7844 41.9497 39.8293 41.625 39.8428 41.2979L39.8477 41.0557V37.6338C39.837 34.5299 37.3207 32.0136 34.2168 32.0029H22.2354C19.1315 32.0137 16.6161 34.5299 16.6055 37.6338V41.0557C16.6032 41.4645 16.6496 41.8713 16.7412 42.2676H14.1855V18.8203C14.1882 17.2574 15.4143 15.9836 16.9561 15.9004L17.1064 15.8965H65.0068L65.1572 15.9004C66.6496 15.9807 67.8459 17.1762 67.9238 18.6699L67.9287 18.8203V42.2676H65.373C65.4465 41.9497 65.4914 41.625 65.5049 41.2979L65.5088 41.0557V37.6338Z" stroke="#9C9C9C"/>
</svg>
