<svg width="121" height="120" viewBox="0 0 121 120" fill="none" xmlns="http://www.w3.org/2000/svg">
<g clip-path="url(#clip0_106_2836)">
<path d="M42.0554 11.2402V26.2402" stroke="#9C9C9C" stroke-width="2" stroke-linecap="round" stroke-linejoin="round"/>
<path d="M57.0554 11.2402V26.2402" stroke="#9C9C9C" stroke-width="2" stroke-linecap="round" stroke-linejoin="round"/>
<path d="M72.0554 11.2402V26.2402" stroke="#9C9C9C" stroke-width="2" stroke-linecap="round" stroke-linejoin="round"/>
<path d="M15.8054 101.24H98.3054" stroke="#9C9C9C" stroke-width="2" stroke-linecap="round" stroke-linejoin="round"/>
<path d="M39.8523 101.24C32.6751 97.947 26.5941 92.6628 22.3314 86.0155C18.0688 79.3681 15.8038 71.6369 15.8054 63.7402V41.2402H98.3054V63.7402C98.307 71.6369 96.042 79.3681 91.7794 86.0155C87.5168 92.6628 81.4357 97.947 74.2585 101.24" stroke="#9C9C9C" stroke-width="2" stroke-linecap="round" stroke-linejoin="round"/>
<path d="M98.3053 41.2402C102.284 41.2402 106.099 42.8206 108.912 45.6336C111.725 48.4467 113.305 52.262 113.305 56.2402V59.9902C113.305 63.9685 111.725 67.7838 108.912 70.5968C106.099 73.4099 102.284 74.9902 98.3053 74.9902H96.7209" stroke="#9C9C9C" stroke-width="2" stroke-linecap="round" stroke-linejoin="round"/>
</g>
<defs>
<clipPath id="clip0_106_2836">
<rect width="120" height="120" fill="white" transform="translate(0.80542 -0.00976562)"/>
</clipPath>
</defs>
</svg>
