<svg width="100" height="100" viewBox="0 0 100 100" fill="none" xmlns="http://www.w3.org/2000/svg">
<g clip-path="url(#clip0_95_2540)">
<path d="M9.375 84.375H65.625" stroke="#9C9C9C" stroke-width="2" stroke-linecap="round" stroke-linejoin="round"/>
<path d="M34.3751 45.5121L22.9102 34.3754C22.5203 34.0245 22.2249 33.5811 22.0514 33.086C21.8779 32.5909 21.8318 32.0601 21.9174 31.5425C22.0031 31.0249 22.2176 30.5372 22.5413 30.1243C22.865 29.7115 23.2874 29.3868 23.7696 29.1801L26.5626 28.1254L49.0352 36.395L70.4571 23.602C73.0286 22.0887 76.0565 21.5452 78.9937 22.0696C81.931 22.594 84.5838 24.1518 86.4727 26.4614L93.7501 35.7973L36.168 70.1723C33.8419 71.5267 31.1408 72.0941 28.4663 71.79C25.7919 71.486 23.287 70.3268 21.3243 68.4848L7.23835 54.6879C6.85952 54.3328 6.57514 53.8889 6.41091 53.3963C6.24668 52.9037 6.20779 52.378 6.29774 51.8666C6.38768 51.3552 6.60364 50.8743 6.9261 50.4673C7.24855 50.0603 7.66733 49.7401 8.1446 49.5356L9.37507 48.934L21.793 53.1254L34.3751 45.5121Z" stroke="#9C9C9C" stroke-width="2" stroke-linecap="round" stroke-linejoin="round"/>
</g>
<defs>
<clipPath id="clip0_95_2540">
<rect width="100" height="100" fill="white"/>
</clipPath>
</defs>
</svg>
