<svg width="120" height="120" viewBox="0 0 120 120" fill="none" xmlns="http://www.w3.org/2000/svg">
<g clip-path="url(#clip0_95_2514)">
<path d="M90 56.25C94.3668 56.2467 98.6743 57.2619 102.58 59.2148C106.486 61.1677 109.883 64.0046 112.5 67.5" stroke="#9C9C9C" stroke-width="2" stroke-linecap="round" stroke-linejoin="round"/>
<path d="M7.5 67.5C10.1175 64.0046 13.5141 61.1677 17.4199 59.2148C21.3257 57.2619 25.6332 56.2467 30 56.25" stroke="#9C9C9C" stroke-width="2" stroke-linecap="round" stroke-linejoin="round"/>
<path d="M60 86.25C70.3553 86.25 78.75 77.8553 78.75 67.5C78.75 57.1447 70.3553 48.75 60 48.75C49.6447 48.75 41.25 57.1447 41.25 67.5C41.25 77.8553 49.6447 86.25 60 86.25Z" stroke="#9C9C9C" stroke-width="2" stroke-linecap="round" stroke-linejoin="round"/>
<path d="M33.75 101.25C36.442 96.6818 40.2795 92.8952 44.8833 90.2645C49.487 87.6337 54.6976 86.25 60 86.25C65.3024 86.25 70.513 87.6337 75.1167 90.2645C79.7205 92.8952 83.558 96.6818 86.25 101.25" stroke="#9C9C9C" stroke-width="2" stroke-linecap="round" stroke-linejoin="round"/>
<path d="M75.4688 37.5C76.17 34.7839 77.6189 32.3189 79.6508 30.3849C81.6828 28.4509 84.2163 27.1254 86.9637 26.559C89.7111 25.9925 92.5623 26.2079 95.1934 27.1805C97.8246 28.1532 100.13 29.8442 101.849 32.0614C103.567 34.2787 104.629 36.9334 104.915 39.724C105.2 42.5146 104.697 45.3294 103.463 47.8486C102.229 50.3677 100.313 52.4904 97.9336 53.9755C95.5538 55.4606 92.8052 56.2486 90 56.25" stroke="#9C9C9C" stroke-width="2" stroke-linecap="round" stroke-linejoin="round"/>
<path d="M29.9998 56.25C27.1946 56.2486 24.446 55.4606 22.0662 53.9755C19.6864 52.4904 17.7707 50.3677 16.5367 47.8486C15.3026 45.3294 14.7998 42.5146 15.0852 39.724C15.3705 36.9334 16.4327 34.2787 18.1511 32.0614C19.8695 29.8442 22.1752 28.1532 24.8063 27.1805C27.4375 26.2079 30.2887 25.9925 33.0361 26.559C35.7835 27.1254 38.317 28.4509 40.3489 30.3849C42.3808 32.3189 43.8297 34.7839 44.531 37.5" stroke="#9C9C9C" stroke-width="2" stroke-linecap="round" stroke-linejoin="round"/>
</g>
<defs>
<clipPath id="clip0_95_2514">
<rect width="120" height="120" fill="white"/>
</clipPath>
</defs>
</svg>
