<svg width="100" height="100" viewBox="0 0 100 100" fill="none" xmlns="http://www.w3.org/2000/svg">
<g clip-path="url(#clip0_293_1189)">
<path d="M18.75 81.25H6.25C5.4212 81.25 4.62634 80.9208 4.04029 80.3347C3.45424 79.7487 3.125 78.9538 3.125 78.125V62.5C3.125 61.6712 3.45424 60.8763 4.04029 60.2903C4.62634 59.7042 5.4212 59.375 6.25 59.375H18.75" stroke="#9C9C9C" stroke-width="2" stroke-linecap="round" stroke-linejoin="round"/>
<path d="M43.75 62.5H56.25L82.4219 56.4805C83.3841 56.2168 84.3942 56.1785 85.3736 56.3687C86.353 56.5589 87.2753 56.9724 88.0689 57.577C88.8625 58.1817 89.506 58.9612 89.9493 59.855C90.3926 60.7488 90.6238 61.7328 90.625 62.7305C90.6255 63.9351 90.2902 65.116 89.6568 66.1407C89.0234 67.1654 88.1169 67.9932 87.0391 68.5312L71.875 75L46.875 81.25H18.75V59.375L28.5156 49.6094C29.3885 48.7395 30.4243 48.0503 31.5637 47.5811C32.7032 47.1119 33.924 46.872 35.1562 46.875H54.6875C56.7595 46.875 58.7466 47.6981 60.2118 49.1632C61.6769 50.6284 62.5 52.6155 62.5 54.6875C62.5 56.7595 61.6769 58.7466 60.2118 60.2118C58.7466 61.6769 56.7595 62.5 54.6875 62.5H43.75Z" stroke="#9C9C9C" stroke-width="2" stroke-linecap="round" stroke-linejoin="round"/>
<path d="M66.8803 47.3359C66.8803 47.3359 46 36.0927 46 22.8417C46 19.9663 47.1422 17.2087 49.1755 15.1755C51.2087 13.1422 53.9663 12 56.8417 12C61.3771 12 65.2621 14.4715 66.8803 18.4247C68.4985 14.4715 72.3835 12 76.9189 12C79.7943 12 82.552 13.1422 84.5852 15.1755C86.6184 17.2087 87.7606 19.9663 87.7606 22.8417C87.7606 36.0927 66.8803 47.3359 66.8803 47.3359Z" stroke="#9C9C9C" stroke-width="2" stroke-linecap="round" stroke-linejoin="round"/>
</g>
<defs>
<clipPath id="clip0_293_1189">
<rect width="100" height="100" fill="white"/>
</clipPath>
</defs>
</svg>
