<svg width="32" height="32" viewBox="0 0 32 32" fill="none" xmlns="http://www.w3.org/2000/svg">
<rect width="32" height="32" rx="16" fill="#B8A255"/>
<g clip-path="url(#clip0_104_2797)">
<path d="M14.5 21.5004V17.5004H17.5V21.5004H21.5V15.5004C21.5001 15.4347 21.4872 15.3697 21.4621 15.309C21.437 15.2483 21.4002 15.1931 21.3538 15.1466L16.3538 10.1466C16.3073 10.1002 16.2522 10.0633 16.1915 10.0381C16.1308 10.013 16.0657 10 16 10C15.9343 10 15.8692 10.013 15.8085 10.0381C15.7478 10.0633 15.6927 10.1002 15.6462 10.1466L10.6463 15.1466C10.5998 15.1931 10.563 15.2483 10.5379 15.309C10.5128 15.3697 10.4999 15.4347 10.5 15.5004V21.5004H14.5Z" stroke="white" stroke-linecap="round" stroke-linejoin="round"/>
</g>
<defs>
<clipPath id="clip0_104_2797">
<rect width="16" height="16" fill="white" transform="translate(8 8)"/>
</clipPath>
</defs>
</svg>
