<svg width="32" height="32" viewBox="0 0 32 32" fill="none" xmlns="http://www.w3.org/2000/svg">
<rect width="32" height="32" rx="16" fill="#848ABA"/>
<g clip-path="url(#clip0_104_2786)">
<path d="M11 21H9C8.86739 21 8.74021 20.9473 8.64645 20.8536C8.55268 20.7598 8.5 20.6326 8.5 20.5V18C8.5 17.8674 8.55268 17.7402 8.64645 17.6464C8.74021 17.5527 8.86739 17.5 9 17.5H11" stroke="white" stroke-linecap="round" stroke-linejoin="round"/>
<path d="M15 18H17L21.1875 17.0369C21.3415 16.9947 21.5031 16.9886 21.6598 17.019C21.8165 17.0494 21.964 17.1156 22.091 17.2123C22.218 17.3091 22.321 17.4338 22.3919 17.5768C22.4628 17.7198 22.4998 17.8772 22.5 18.0369C22.5001 18.2296 22.4464 18.4186 22.3451 18.5825C22.2437 18.7465 22.0987 18.8789 21.9263 18.965L19.5 20L15.5 21H11V17.5L12.5625 15.9375C12.7022 15.7983 12.8679 15.6881 13.0502 15.613C13.2325 15.5379 13.4278 15.4995 13.625 15.5H16.75C17.0815 15.5 17.3995 15.6317 17.6339 15.8661C17.8683 16.1005 18 16.4185 18 16.75C18 17.0815 17.8683 17.3995 17.6339 17.6339C17.3995 17.8683 17.0815 18 16.75 18H15Z" stroke="white" stroke-linecap="round" stroke-linejoin="round"/>
<path d="M14.0456 15.5002C13.4375 14.7327 13 13.9102 13 13.0002C13 11.6445 14.1044 10.5002 15.4662 10.5002C15.953 10.4945 16.4303 10.6342 16.8372 10.9014C17.2441 11.1686 17.5619 11.5512 17.75 12.0002C17.9381 11.5512 18.2559 11.1686 18.6628 10.9014C19.0697 10.6342 19.547 10.4945 20.0337 10.5002C21.3956 10.5002 22.5 11.6445 22.5 13.0002C22.5 14.827 20.7387 16.442 19.3612 17.4577" stroke="white" stroke-linecap="round" stroke-linejoin="round"/>
</g>
<defs>
<clipPath id="clip0_104_2786">
<rect width="16" height="16" fill="white" transform="translate(8 8)"/>
</clipPath>
</defs>
</svg>
