<svg width="32" height="32" viewBox="0 0 32 32" fill="none" xmlns="http://www.w3.org/2000/svg">
<rect width="32" height="32" rx="16" fill="#5A8DA6"/>
<g clip-path="url(#clip0_104_2824)">
<path d="M21.25 16C21.9404 16 22.5 15.4404 22.5 14.75C22.5 14.0596 21.9404 13.5 21.25 13.5C20.5596 13.5 20 14.0596 20 14.75C20 15.4404 20.5596 16 21.25 16Z" stroke="white" stroke-linecap="round" stroke-linejoin="round"/>
<path d="M10.75 16C11.4404 16 12 15.4404 12 14.75C12 14.0596 11.4404 13.5 10.75 13.5C10.0596 13.5 9.5 14.0596 9.5 14.75C9.5 15.4404 10.0596 16 10.75 16Z" stroke="white" stroke-linecap="round" stroke-linejoin="round"/>
<path d="M13.75 13C14.4404 13 15 12.4404 15 11.75C15 11.0596 14.4404 10.5 13.75 10.5C13.0596 10.5 12.5 11.0596 12.5 11.75C12.5 12.4404 13.0596 13 13.75 13Z" stroke="white" stroke-linecap="round" stroke-linejoin="round"/>
<path d="M18.25 13C18.9404 13 19.5 12.4404 19.5 11.75C19.5 11.0596 18.9404 10.5 18.25 10.5C17.5596 10.5 17 11.0596 17 11.75C17 12.4404 17.5596 13 18.25 13Z" stroke="white" stroke-linecap="round" stroke-linejoin="round"/>
<path d="M16.0001 14.5C15.5125 14.5002 15.0381 14.6587 14.6485 14.9518C14.2588 15.2449 13.9749 15.6566 13.8394 16.125C13.6393 16.8139 13.1749 17.3958 12.5476 17.7437C12.0921 17.9866 11.7482 18.3961 11.5877 18.8866C11.4272 19.3772 11.4625 19.9108 11.6864 20.3759C11.9102 20.8409 12.3051 21.2015 12.7886 21.3821C13.2721 21.5627 13.8068 21.5494 14.2807 21.345C15.382 20.8934 16.6168 20.8934 17.7182 21.345C18.1921 21.5494 18.7267 21.5627 19.2102 21.3821C19.6937 21.2015 20.0887 20.8409 20.3125 20.3759C20.5363 19.9108 20.5717 19.3772 20.4112 18.8866C20.2507 18.3961 19.9067 17.9866 19.4513 17.7437C18.8243 17.3957 18.3603 16.8138 18.1607 16.125C18.0252 15.6566 17.7413 15.2449 17.3516 14.9518C16.962 14.6587 16.4876 14.5002 16.0001 14.5Z" stroke="white" stroke-linecap="round" stroke-linejoin="round"/>
</g>
<defs>
<clipPath id="clip0_104_2824">
<rect width="16" height="16" fill="white" transform="translate(8 8)"/>
</clipPath>
</defs>
</svg>
