<svg width="23" height="23" viewBox="0 0 23 23" fill="none" xmlns="http://www.w3.org/2000/svg">
<g clip-path="url(#clip0_280_1040)">
<path d="M21.5273 9.83008C21.5273 10.306 21.3862 10.7712 21.1218 11.1669C20.8574 11.5626 20.4816 11.871 20.0419 12.0532C19.6022 12.2353 19.1184 12.2829 18.6517 12.1901C18.1849 12.0972 17.7561 11.8681 17.4196 11.5316C17.0831 11.195 16.8539 10.7663 16.7611 10.2995C16.6682 9.83275 16.7159 9.34893 16.898 8.90925C17.0801 8.46956 17.3885 8.09376 17.7843 7.82935C18.18 7.56495 18.6452 7.42383 19.1211 7.42383C19.7593 7.42383 20.3713 7.67734 20.8226 8.1286C21.2738 8.57986 21.5273 9.1919 21.5273 9.83008ZM7.08984 9.83008C7.08984 9.35417 6.94872 8.88894 6.68432 8.49324C6.41992 8.09753 6.04411 7.78912 5.60443 7.60699C5.16474 7.42487 4.68093 7.37722 4.21416 7.47006C3.74739 7.56291 3.31864 7.79208 2.98212 8.1286C2.6456 8.46512 2.41643 8.89388 2.32358 9.36064C2.23073 9.82741 2.27839 10.3112 2.46051 10.7509C2.64263 11.1906 2.95105 11.5664 3.34675 11.8308C3.74246 12.0952 4.20768 12.2363 4.68359 12.2363C5.32177 12.2363 5.93381 11.9828 6.38507 11.5316C6.83633 11.0803 7.08984 10.4683 7.08984 9.83008ZM8.8086 8.11133C9.28451 8.11133 9.74973 7.9702 10.1454 7.7058C10.5411 7.4414 10.8496 7.0656 11.0317 6.62591C11.2138 6.18623 11.2615 5.70241 11.1686 5.23564C11.0758 4.76888 10.8466 4.34012 10.5101 4.0036C10.1736 3.66708 9.7448 3.43791 9.27803 3.34506C8.81126 3.25222 8.32745 3.29987 7.88776 3.48199C7.44808 3.66412 7.07227 3.97253 6.80787 4.36824C6.54347 4.76394 6.40234 5.22917 6.40234 5.70508C6.40234 6.34326 6.65586 6.95529 7.10712 7.40655C7.55838 7.85781 8.17042 8.11133 8.8086 8.11133ZM14.9961 8.11133C15.472 8.11133 15.9372 7.9702 16.3329 7.7058C16.7286 7.4414 17.0371 7.0656 17.2192 6.62591C17.4013 6.18623 17.449 5.70241 17.3561 5.23564C17.2633 4.76888 17.0341 4.34012 16.6976 4.0036C16.3611 3.66708 15.9323 3.43791 15.4655 3.34506C14.9988 3.25222 14.5149 3.29987 14.0753 3.48199C13.6356 3.66412 13.2598 3.97253 12.9954 4.36824C12.731 4.76394 12.5898 5.22917 12.5898 5.70508C12.5898 6.34326 12.8434 6.95529 13.2946 7.40655C13.7459 7.85781 14.3579 8.11133 14.9961 8.11133ZM16.983 13.3415C16.6338 13.1488 16.326 12.8892 16.0772 12.5775C15.8284 12.2657 15.6436 11.908 15.5332 11.5248C15.3046 10.7387 14.8271 10.048 14.1723 9.55649C13.5176 9.06502 12.721 8.79931 11.9023 8.79931C11.0837 8.79931 10.2871 9.06502 9.63237 9.55649C8.97762 10.048 8.50008 10.7387 8.27149 11.5248C8.05067 12.2959 7.533 12.948 6.83203 13.338C6.15959 13.7019 5.62764 14.2796 5.32033 14.9797C5.01302 15.6798 4.94788 16.4623 5.13522 17.2036C5.32255 17.9449 5.75168 18.6025 6.35471 19.0725C6.95775 19.5426 7.70027 19.7981 8.46485 19.7988C8.92303 19.8001 9.37673 19.7086 9.79859 19.5298C11.1436 18.9752 12.6534 18.9752 13.9984 19.5298C14.813 19.8841 15.7332 19.9093 16.566 19.6001C17.3988 19.2908 18.0795 18.6712 18.4655 17.871C18.8514 17.0709 18.9126 16.1524 18.6363 15.3081C18.3599 14.4638 17.7674 13.7594 16.983 13.3423V13.3415Z" fill="white"/>
</g>
<defs>
<clipPath id="clip0_280_1040">
<rect width="22" height="22" fill="white" transform="translate(0.902344 0.548828)"/>
</clipPath>
</defs>
</svg>
