<svg width="25" height="25" viewBox="0 0 25 25" fill="none" xmlns="http://www.w3.org/2000/svg">
<g clip-path="url(#clip0_106_2873)">
<path d="M22.6523 10.5156C22.6523 17.0781 12.922 22.39 12.5077 22.6094C12.3984 22.6681 12.2764 22.6989 12.1523 22.6989C12.0283 22.6989 11.9062 22.6681 11.797 22.6094C11.483 22.4406 5.83922 19.3572 3.10828 15.0259C3.07305 14.9692 3.05362 14.9041 3.05198 14.8373C3.05034 14.7706 3.06655 14.7046 3.09895 14.6462C3.13135 14.5878 3.17876 14.5391 3.23627 14.5052C3.29378 14.4712 3.35931 14.4533 3.42609 14.4531H6.90234C7.02585 14.4532 7.14747 14.4228 7.25639 14.3646C7.36531 14.3063 7.45817 14.2221 7.52672 14.1194L8.40234 12.8069L10.778 16.3694C10.869 16.5059 11.0023 16.6088 11.1574 16.6623C11.3125 16.7158 11.4809 16.717 11.6367 16.6656C11.8019 16.6099 11.9431 16.4994 12.037 16.3525L13.3036 14.4531H15.1523C15.2552 14.4534 15.3569 14.4324 15.4513 14.3917C15.5457 14.3509 15.6307 14.2912 15.701 14.2162C15.7714 14.1412 15.8255 14.0525 15.8602 13.9557C15.8948 13.8589 15.9092 13.756 15.9023 13.6534C15.8856 13.4607 15.7965 13.2814 15.6531 13.1515C15.5096 13.0216 15.3224 12.9507 15.1289 12.9531H12.9023C12.7788 12.953 12.6572 12.9835 12.5483 13.0417C12.4394 13.0999 12.3465 13.1841 12.278 13.2869L11.4023 14.5994L9.02672 11.0369C8.93569 10.9004 8.80241 10.7975 8.6473 10.7439C8.49219 10.6904 8.32381 10.6893 8.16797 10.7406C8.00278 10.7964 7.86157 10.9069 7.76766 11.0537L6.50109 12.9531H2.35828C2.27814 12.9533 2.20003 12.9279 2.13541 12.8805C2.07079 12.8331 2.02306 12.7662 1.99922 12.6897C1.77302 11.987 1.65603 11.2538 1.65234 10.5156C1.65408 8.97459 2.26703 7.49716 3.3567 6.40749C4.44638 5.31781 5.92381 4.70486 7.46484 4.70312C9.40078 4.70312 11.0958 5.53562 12.1523 6.94281C13.2089 5.53562 14.9039 4.70312 16.8398 4.70312C18.3809 4.70486 19.8583 5.31781 20.948 6.40749C22.0377 7.49716 22.6506 8.97459 22.6523 10.5156Z" fill="white"/>
</g>
<defs>
<clipPath id="clip0_106_2873">
<rect width="24" height="24" fill="white" transform="translate(0.152344 0.953125)"/>
</clipPath>
</defs>
</svg>
