<svg width="22" height="22" viewBox="0 0 22 22" fill="none" xmlns="http://www.w3.org/2000/svg">
<path d="M13.0625 2.0625C13.0625 3.20116 12.1387 4.125 11 4.125C9.86133 4.125 8.9375 3.20116 8.9375 2.0625C8.9375 0.923835 9.86133 0 11 0C12.1387 0 13.0625 0.923835 13.0625 2.0625ZM12.375 5.5H9.625C8.86495 5.5 8.25 6.11503 8.25 6.875V12.375H9.625V17.875H12.375V12.375H13.75V6.875C13.75 6.11503 13.135 5.5 12.375 5.5ZM13.75 13.8963V15.2848C16.9525 15.6634 19.25 16.6786 19.25 17.8751C19.25 19.3937 15.556 20.6251 11 20.6251C6.44398 20.625 2.75 19.3937 2.75 17.8751C2.75 16.6787 5.04882 15.6635 8.25 15.2848V13.8963C4.51972 14.3045 1.375 15.5774 1.375 17.875C1.375 20.7244 6.20895 22 11 22C15.791 22 20.625 20.7243 20.625 17.875C20.625 15.5776 17.4803 14.3046 13.75 13.8965V13.8963Z" fill="white"/>
</svg>
