<svg width="23" height="23" viewBox="0 0 23 23" fill="none" xmlns="http://www.w3.org/2000/svg">
<g clip-path="url(#clip0_280_1048)">
<path d="M19.919 12.639C19.6942 12.4658 19.4364 12.3401 19.1615 12.2696C18.8865 12.1991 18.6001 12.1853 18.3197 12.2291C19.9336 10.5997 20.75 8.97981 20.75 7.39168C20.75 5.11692 18.9204 3.26668 16.6714 3.26668C16.0747 3.26293 15.4843 3.38985 14.9419 3.63852C14.3994 3.88719 13.9179 4.25159 13.5312 4.70614C13.1446 4.25159 12.6631 3.88719 12.1206 3.63852C11.5782 3.38985 10.9878 3.26293 10.3911 3.26668C8.14211 3.26668 6.3125 5.11692 6.3125 7.39168C6.3125 8.33699 6.59094 9.25567 7.17703 10.2276C6.69702 10.3492 6.25895 10.5987 5.90945 10.9495L3.96555 12.8917H1.5C1.13533 12.8917 0.785591 13.0365 0.527728 13.2944C0.269866 13.5523 0.125 13.902 0.125 14.2667L0.125 17.7042C0.125 18.0689 0.269866 18.4186 0.527728 18.6765C0.785591 18.9343 1.13533 19.0792 1.5 19.0792H10.4375C10.4937 19.0792 10.5497 19.0723 10.6042 19.0586L16.1042 17.6836C16.1393 17.6752 16.1735 17.6637 16.2065 17.6492L19.5469 16.2278L19.5847 16.2106C19.9057 16.0502 20.1806 15.8107 20.3835 15.5146C20.5864 15.2186 20.7106 14.8758 20.7444 14.5185C20.7782 14.1612 20.7204 13.8012 20.5766 13.4724C20.4328 13.1436 20.2077 12.8568 19.9224 12.639H19.919ZM18.9823 14.9722L15.7166 16.3627L10.3516 17.7042H4.9375V13.8636L6.88227 11.9197C7.00948 11.7915 7.16092 11.6898 7.32778 11.6206C7.49464 11.5514 7.67359 11.5161 7.85422 11.5167H12.1562C12.4298 11.5167 12.6921 11.6253 12.8855 11.8187C13.0789 12.0121 13.1875 12.2744 13.1875 12.5479C13.1875 12.8214 13.0789 13.0837 12.8855 13.2771C12.6921 13.4705 12.4298 13.5792 12.1562 13.5792H9.75C9.56766 13.5792 9.3928 13.6516 9.26386 13.7805C9.13493 13.9095 9.0625 14.0843 9.0625 14.2667C9.0625 14.449 9.13493 14.6239 9.26386 14.7528C9.3928 14.8817 9.56766 14.9542 9.75 14.9542H12.5C12.5517 14.954 12.6033 14.9483 12.6538 14.937L18.4116 13.6127L18.4383 13.6058C18.614 13.557 18.8017 13.575 18.965 13.6562C19.1283 13.7374 19.2559 13.8761 19.3231 14.0457C19.3903 14.2153 19.3924 14.4037 19.329 14.5748C19.2656 14.7458 19.1412 14.8874 18.9797 14.9722H18.9823Z" fill="white"/>
</g>
<defs>
<clipPath id="clip0_280_1048">
<rect width="22" height="22" fill="white" transform="translate(0.125 0.516602)"/>
</clipPath>
</defs>
</svg>
