<svg width="236" height="106" viewBox="0 0 236 106" fill="none" xmlns="http://www.w3.org/2000/svg">
<path d="M15.9938 39.6132C13.8817 39.6132 11.6334 39.4258 9.24879 39.0511C6.8642 38.7104 4.8373 38.2676 3.16809 37.7225V36.8028L1.48185 24.437C3.38952 28.8996 5.65487 32.3743 8.27792 34.861C10.935 37.3138 13.7965 38.5401 16.8624 38.5401C18.8723 38.5401 20.4904 37.978 21.7168 36.8539C22.9772 35.6956 23.6074 34.1797 23.6074 32.3061C23.6074 30.7732 23.1645 29.4787 22.2788 28.4227C21.4272 27.3326 20.3541 26.4639 19.0597 25.8166C17.7992 25.1353 16.0619 24.3518 13.8476 23.4661C11.2927 22.4442 9.23175 21.5074 7.66474 20.6557C6.13179 19.8041 4.82027 18.6459 3.73017 17.181C2.67414 15.7162 2.14613 13.8767 2.14613 11.6624C2.14613 9.48223 2.74227 7.52347 3.93457 5.78612C5.12686 4.01472 6.77904 2.63507 8.8911 1.64717C11.0032 0.6252 13.3537 0.114217 15.9427 0.114217C17.8163 0.114217 19.6899 0.318611 21.5635 0.727398C23.4711 1.13618 25.2255 1.74936 26.8266 2.56693V3.4867L28.4106 13.9107C24.1184 5.4625 19.5195 1.23838 14.6141 1.23838C12.5702 1.23838 10.901 1.83453 9.60647 3.02682C8.31199 4.18505 7.66474 5.68393 7.66474 7.52346C7.66474 8.88609 8.07353 10.0443 8.8911 10.9981C9.70867 11.952 10.7306 12.7525 11.957 13.3998C13.2174 14.0129 14.8866 14.7283 16.9646 15.5459C19.6217 16.6019 21.7508 17.5728 23.3519 18.4585C24.953 19.3442 26.3156 20.5706 27.4398 22.1376C28.598 23.6705 29.1771 25.6123 29.1771 27.9628C29.1771 30.2111 28.6321 32.221 27.542 33.9924C26.4519 35.7297 24.9019 37.1094 22.892 38.1313C20.9162 39.1192 18.6168 39.6132 15.9938 39.6132ZM69.0745 39H37.1381L40.6638 35.7808V4.25318L37.1381 0.982889H67.3371V1.95376L68.7168 12.8377L60.2856 2.05595H48.7374V18.7651L55.7378 18.714L60.2345 11.7646V26.8386L55.7378 19.8381H48.7374V37.9269H61.9718L70.403 25.8166L69.0745 38.0291V39ZM113.818 4.25318V40.7884L84.9988 7.67676H84.3856V35.7808L89.6487 39H77.7428L83.0059 35.7808V5.42844L78.9181 1.28948L89.802 0.420806L111.723 25.7144H112.439V4.25318L107.175 0.982889H119.081L113.818 4.25318ZM125.949 39L129.475 35.9852V3.99768L125.949 0.982889H141.023L137.549 3.99768V35.9852L141.023 39H125.949ZM169.289 39.6132C165.747 39.6132 162.442 38.7275 159.376 36.9561C156.344 35.1506 153.926 32.7319 152.12 29.7001C150.315 26.6342 149.412 23.2958 149.412 19.6849C149.412 16.142 150.298 12.8718 152.069 9.87399C153.875 6.87622 156.293 4.50867 159.325 2.77133C162.391 0.99992 165.712 0.114217 169.289 0.114217C172.866 0.114217 176.171 0.99992 179.202 2.77133C182.268 4.50867 184.687 6.87622 186.458 9.87399C188.264 12.8718 189.167 16.142 189.167 19.6849C189.167 23.2958 188.264 26.6342 186.458 29.7001C184.653 32.7319 182.217 35.1506 179.151 36.9561C176.119 38.7275 172.832 39.6132 169.289 39.6132ZM169.289 38.489C172.9 38.489 175.677 36.8879 177.618 33.6858C179.56 30.4836 180.531 25.8166 180.531 19.6849C180.531 13.7575 179.56 9.20971 177.618 6.04162C175.677 2.83946 172.9 1.23838 169.289 1.23838C165.678 1.23838 162.885 2.82243 160.909 5.99052C158.968 9.12455 157.997 13.6893 157.997 19.6849C157.997 25.7145 158.968 30.3644 160.909 33.6347C162.885 36.8709 165.678 38.489 169.289 38.489ZM201.021 35.9852V4.25318L197.495 0.982889H215.175C218.07 0.982889 220.642 1.39167 222.891 2.20925C225.173 2.99275 226.944 4.09988 228.205 5.53063C229.499 6.92732 230.147 8.49433 230.147 10.2317C230.147 12.2756 229.227 14.1322 227.387 15.8014C225.548 17.4365 223.112 18.6288 220.08 19.3783V20.1958L235.767 39H225.701L210.883 20.3491H209.094V35.9852L212.569 39H197.495L201.021 35.9852ZM213.284 19.225C215.907 19.225 218.002 18.4074 219.569 16.7723C221.136 15.1371 221.92 13.025 221.92 10.4361C221.92 7.94929 221.187 5.93942 219.723 4.40647C218.258 2.83946 216.316 2.05595 213.897 2.05595H209.094V19.225H213.284ZM31.9875 104H0.766474L4.29225 100.934V68.9977L0.766474 65.9829H16.4536L12.3658 68.9977V102.825H24.6294L33.4694 89.3859L31.9875 103.029V104ZM41.3796 104L44.9054 100.985V68.9977L41.3796 65.9829H56.4536L52.9789 68.9977V100.985L56.4536 104H41.3796ZM98.9418 69.3554L84.2766 105.84L67.3631 69.4065L63.2241 65.9829H81.875L76.6119 69.3043L87.3936 93.1161H88.1601L97.5111 69.3043L92.0946 65.9829H104.052L98.9418 69.3554ZM110.73 104L114.255 100.985V68.9977L110.73 65.9829H125.804L122.329 68.9977V100.985L125.804 104H110.73ZM168.897 69.2532V105.788L140.077 72.6768H139.464V100.781L144.727 104H132.821L138.084 100.781V70.4284L133.996 66.2895L144.88 65.4208L166.802 90.7144H167.517V69.2532L162.254 65.9829H174.16L168.897 69.2532ZM213.797 101.138C212.162 102.229 210.254 103.08 208.074 103.693C205.928 104.307 203.748 104.613 201.534 104.613C197.82 104.613 194.397 103.727 191.263 101.956C188.129 100.151 185.642 97.7319 183.802 94.7001C181.963 91.6342 181.043 88.2958 181.043 84.6849C181.043 81.142 181.997 77.8718 183.905 74.874C185.812 71.8762 188.384 69.5087 191.621 67.7713C194.857 65.9999 198.4 65.1142 202.249 65.1142C204.668 65.1142 207.086 65.3356 209.505 65.7785C211.958 66.1873 213.865 66.7323 215.228 67.4136V68.2823L216.608 79.4728C214.87 76.3388 213.303 73.835 211.907 71.9614C210.544 70.0878 209.079 68.6741 207.512 67.7202C205.945 66.7323 204.174 66.2384 202.198 66.2384C199.711 66.2384 197.531 67.0049 195.657 68.5378C193.784 70.0707 192.319 72.2339 191.263 75.0273C190.241 77.8207 189.73 81.0398 189.73 84.6849C189.73 88.4321 190.224 91.7364 191.212 94.5979C192.2 97.4254 193.596 99.6226 195.402 101.19C197.241 102.723 199.353 103.489 201.738 103.489C203.782 103.489 205.621 102.825 207.257 101.496C208.892 100.168 210.033 98.3792 210.68 96.1309V85.7579H202.709V84.5827H222.177L218.703 87.8529V104.766L213.797 101.138Z" fill="#19211C"/>
</svg>
